<svg xmlns="http://www.w3.org/2000/svg" style="display: none;">
  
    <symbol id="icon-whatsapp" viewBox="0 0 512 512">
      <path d="m486 252c0 124-101 225-226 225c-39 0-77-11-109-28l-125 39l40-120c-20-34-32-73-32-116c0-124 101-224 226-224c125 0 226 100 226 224z m-226-189c-105 0-190 85-190 189c0 41 13 80 36 111l-24 70l74-23c30 19 66 31 104 31c105 0 190-85 190-189c0-104-85-189-190-189z m114 241c-1-2-5-4-10-7c-6-2-33-16-38-17c-5-2-9-3-13 2c-3 6-14 18-17 22c-3 4-7 4-12 1c-6-3-24-8-45-27c-16-15-27-33-31-38c-3-6 0-9 3-11c2-3 5-7 8-10c3-3 4-6 6-9c2-4 1-7-1-10c-1-3-12-30-17-41c-4-11-9-9-12-9c-4 0-7 0-11 0c-4 0-10 1-15 7c-5 5-19 18-19 45c0 28 20 54 22 57c3 4 39 61 95 83c57 22 57 15 67 14c10-1 33-13 37-26c5-13 5-24 3-26z"/>
    </symbol>
  
    <symbol id="icon-mention" viewBox="0 0 512 512">
      <path d="m281 50c-114-14-217 67-231 181-14 114 67 217 181 231 35 5 72 0 106-15l0 0c13-5 18-19 13-31-5-12-19-18-31-13l0 0c-27 11-55 15-82 12-88-11-151-91-140-178 11-88 91-151 179-140 87 11 150 91 139 179-2 17-11 27-31 27-21 0-32-23-32-40l0-63c0-13-11-24-24-24-5 0-9 1-13 4-13-10-29-17-47-19-53-7-101 31-107 83-7 53 31 101 83 107 29 4 58-7 79-26 13 14 30 24 50 26 44 5 84-26 89-70 14-114-67-217-181-231z m23 212c-4 26-28 45-54 42-26-4-45-28-42-54 4-26 28-45 54-42 26 4 45 28 42 54z"/>
    </symbol>
  
    <symbol id="icon-linkedin" viewBox="0 0 512 512">
      <path d="m130 78c0 13-5 25-15 35c-10 9-22 14-38 14c-15 0-28-5-37-14c-10-10-14-22-14-35c0-15 4-26 14-36c9-9 22-13 38-13c16 0 28 4 37 13c9 10 14 21 15 36m-101 404c0 0 0-316 0-316c0 0 98 0 98 0c0 0 0 316 0 316c0 0-98 0-98 0m156-215c0-29 0-63-2-101c0 0 85 0 85 0c0 0 5 44 5 44c0 0 2 0 2 0c21-34 53-51 98-51c34 0 61 11 82 34c21 23 31 57 31 102c0 0 0 187 0 187c0 0-98 0-98 0c0 0 0-175 0-175c0-46-17-68-50-68c-24 0-41 12-50 36c-2 5-3 13-3 25c0 0 0 182 0 182c0 0-100 0-100 0c0 0 0-215 0-215"/>
    </symbol>
  
    <symbol id="icon-chevron-left" viewBox="0 0 512 512">
      <path d="m368 160l-64-64-160 160 160 160 64-64-96-96z"/>
    </symbol>
  
</svg>
